<svg width="66" height="164" viewBox="0 0 66 164" fill="none" xmlns="http://www.w3.org/2000/svg">
<path fill-rule="evenodd" clip-rule="evenodd" d="M38.1347 3.68226L33.3137 0V6.06638V134.787C28.6284 131.81 21.7286 131.068 14.8779 133.325C4.38689 136.781 -2.01635 145.961 0.575871 153.829C3.16809 161.698 13.7742 165.274 24.2652 161.818C33.5509 158.759 39.6341 151.215 39.1119 144.066H39.3137V12.1947C43.4182 15.501 47.5434 19.2926 50.9998 24.3229C55.7682 31.2627 59.3648 40.7338 59.3648 54.7723C59.3648 64.1181 57.3759 71.4179 55.3048 76.8271C54.2645 79.544 53.2029 81.7875 52.3263 83.6397L52.3149 83.6638C51.8888 84.5641 51.4837 85.4202 51.166 86.1665C50.8599 86.8857 50.5442 87.7071 50.3973 88.5006C50.0956 90.1298 51.1718 91.695 52.801 91.9966C54.4301 92.2983 55.9954 91.2221 56.297 89.5929C56.3171 89.4845 56.4084 89.1703 56.6868 88.5162C56.9508 87.8959 57.3031 87.1497 57.7496 86.2063L57.7682 86.1672C58.6427 84.3193 59.7854 81.9047 60.9081 78.9725C63.1789 73.0419 65.3648 65.0083 65.3648 54.7723C65.3648 39.6049 61.4467 28.9321 55.945 20.925C50.6697 13.2475 44.0316 8.18217 38.6524 4.07741L38.1347 3.68226Z" fill="black"/>
</svg>
